<svg xmlns="http://www.w3.org/2000/svg" width="1200" height="480" viewBox="0 0 1200 480" role="img" aria-label="인천 지역 정보 썸네일">
  <defs>
    <linearGradient id="bg2" x1="0" y1="0" x2="1" y2="0">
      <stop offset="0%" stop-color="#dff3ff"/>
      <stop offset="100%" stop-color="#8fd9f8"/>
    </linearGradient>
    <filter id="shadow2" x="-20%" y="-20%" width="140%" height="140%">
      <feDropShadow dx="0" dy="2" stdDeviation="2" flood-color="#12364f" flood-opacity="0.15"/>
    </filter>
  </defs>

  <rect width="1200" height="480" fill="url(#bg2)"/>

  <g transform="translate(58,128)">
    <text x="0" y="0" font-size="84" font-family="Pretendard, 'Noto Sans KR', sans-serif" font-weight="800" fill="#11334a" filter="url(#shadow2)">인천 지역 정보</text>
    <text x="2" y="88" font-size="34" font-family="Pretendard, 'Noto Sans KR', sans-serif" font-weight="700" fill="#225878">한눈에 보는 생활 혜택과 지역 소식</text>
  </g>

  <g transform="translate(900,50)">
    <rect x="0" y="0" width="250" height="250" rx="30" fill="#ffffff" fill-opacity="0.85"/>
    <path d="M40 192c28-44 56-66 88-66s60 22 88 66" fill="none" stroke="#2b88b5" stroke-width="12" stroke-linecap="round"/>
    <path d="M102 84h42v38h-42z" fill="#2f9ccf"/>
    <path d="M92 122h62v78h-62z" fill="#65bfe6"/>
    <circle cx="64" cy="90" r="18" fill="#ffcc66"/>
    <circle cx="190" cy="88" r="16" fill="#ffd98a"/>
    <circle cx="76" cy="138" r="12" fill="#a4e1ff"/>
    <circle cx="196" cy="146" r="10" fill="#a4e1ff"/>
    <path d="M22 34h40M22 52h62M22 70h48" stroke="#2f7ca5" stroke-width="8" stroke-linecap="round"/>
  </g>
</svg>
